<?xml version="1.0" standalone="no"?>
<!DOCTYPE svg PUBLIC "-//W3C//DTD SVG 20010904//EN"
 "http://www.w3.org/TR/2001/REC-SVG-20010904/DTD/svg10.dtd">
<svg xmlns="http://www.w3.org/2000/svg"
 viewBox="0 0 1500.000000 1500.000000">

<g transform="translate(0.000000,1500.000000) scale(0.100000,-0.100000)"
fill="#040f13">
<path d="M7423 10920 c-339 -33 -675 -121 -977 -256 -118 -53 -310 -155 -333
-178 -10 -9 177 -201 856 -880 l868 -868 804 806 c442 444 805 810 806 814 2
4 -43 37 -100 73 -388 252 -779 399 -1242 469 -160 24 -528 35 -682 20z"/>
<path d="M5162 9573 c-254 -392 -400 -776 -473 -1253 -19 -123 -23 -185 -23
-415 0 -230 4 -292 23 -415 73 -475 218 -859 470 -1247 36 -57 70 -102 74
-100 5 1 406 400 891 885 l884 883 -827 828 c-454 455 -854 853 -887 884 l-61
58 -71 -108z"/>
<path d="M8171 7419 l-2083 -2082 49 -30 c229 -143 590 -288 873 -350 258 -58
384 -71 675 -71 230 0 292 4 415 23 565 87 1042 292 1470 631 135 106 374 345
480 480 339 428 544 905 631 1470 19 123 23 185 23 415 0 291 -13 417 -71 675
-62 283 -207 644 -350 873 l-29 48 -2083 -2082z"/>
</g>
</svg>
